FFmpeg version SVN-r25716, Copyright (c) 2000-2010 the FFmpeg developers  built on Nov 10 2010 12:23:18 with gcc 4.1.2 20080704 (Red Hat 4.1.2-48)  configuration: --enable-libmp3lame --enable-shared --disable-mmx --arch=x86_64  libavutil     50.33. 0 / 50.33. 0  libavcore      0.12. 1 /  0.12. 1  libavcodec    52.94. 4 / 52.94. 4  libavformat   52.84. 0 / 52.84. 0  libavdevice   52. 2. 2 / 52. 2. 2  libavfilter    1.59. 0 /  1.59. 0  libswscale     0.12. 0 /  0.12. 0Seems stream 0 codec frame rate differs from container frame rate: 1200.00 (1200/1) -> 6.98 (300/43)Input #0, mov,mp4,m4a,3gp,3g2,mj2, from '/RAID10/data/converted_video_files/11992.mov':  Metadata:    major_brand     : qt      minor_version   : 537199360    compatible_brands: qt    Duration: 00:00:39.41, start: 0.000000, bitrate: 1853 kb/s    Stream #0.0(eng): Video: h264, yuv420p, 1160x376, 1851 kb/s, 6.98 fps, 6.98 tbr, 600 tbn, 1200 tbc[buffer @ 0x118fb570] w:1160 h:376 pixfmt:yuv420pOutput #0, flv, to '/RAID10/data/converted_video_files/11992.flv':  Metadata:    encoder         : Lavf52.84.0    Stream #0.0(eng): Video: flv, yuv420p, 1160x376, q=2-31, 600 kb/s, 1k tbn, 24 tbcStream mapping:  Stream #0.0 -> #0.0Press [q] to stop encodingframe=    1 fps=  0 q=5.5 size=     396kB time=0.04 bitrate=77278.9kbits/s    frame=    4 fps=  2 q=2.3 size=     701kB time=0.46 bitrate=12502.4kbits/s    frame=   14 fps=  6 q=27.4 size=     778kB time=1.92 bitrate=3327.4kbits/s    frame=   33 fps= 12 q=31.0 size=     837kB time=4.62 bitrate=1483.3kbits/s    frame=   55 fps= 16 q=31.0 size=     909kB time=7.79 bitrate= 955.6kbits/s    frame=   75 fps= 19 q=26.2 size=     995kB time=10.67 bitrate= 763.9kbits/s    frame=   95 fps= 22 q=21.6 size=    1126kB time=13.50 bitrate= 683.4kbits/s    frame=  115 fps= 24 q=20.1 size=    1271kB time=16.38 bitrate= 635.8kbits/s    frame=  135 fps= 25 q=20.0 size=    1425kB time=19.25 bitrate= 606.3kbits/s    frame=  154 fps= 26 q=18.2 size=    1557kB time=21.96 bitrate= 580.8kbits/s    frame=  175 fps= 27 q=17.6 size=    1720kB time=25.00 bitrate= 563.6kbits/s    frame=  196 fps= 28 q=17.2 size=    1875kB time=28.00 bitrate= 548.4kbits/s    frame=  218 fps= 29 q=17.1 size=    2063kB time=31.12 bitrate= 542.9kbits/s    frame=  239 fps= 30 q=16.4 size=    2264kB time=34.17 bitrate= 542.8kbits/s    frame=  260 fps= 31 q=16.3 size=    2403kB time=37.17 bitrate= 529.7kbits/s    frame=  275 fps= 31 q=16.7 Lsize=    2403kB time=39.33 bitrate= 500.5kbits/s    video:2399kB audio:0kB global headers:0kB muxing overhead 0.187688%